<?xml version="1.0" standalone="no"?>
<!DOCTYPE svg PUBLIC "-//W3C//DTD SVG 20010904//EN"
 "http://www.w3.org/TR/2001/REC-SVG-20010904/DTD/svg10.dtd">
<svg version="1.0" xmlns="http://www.w3.org/2000/svg"
 width="1136.000000pt" height="1136.000000pt" viewBox="0 0 1136.000000 1136.000000"
 preserveAspectRatio="xMidYMid meet">
<metadata>
Created by potrace 1.11, written by Peter Selinger 2001-2013
</metadata>
<g transform="translate(0.000000,1136.000000) scale(0.100000,-0.100000)"
fill="#000000" stroke="none">
<path d="M2219 11353 c-1 -10 -1 -8101 0 -8132 1 -20 5 -23 31 -19 17 3 30 1
30 -4 0 -5 5 -6 12 -2 14 9 461 9 475 1 6 -4 13 -4 17 0 9 9 706 9 706 0 0 -5
5 -5 11 -1 16 9 210 11 216 1 2 -4 9 -4 15 -1 15 10 258 11 258 1 0 -4 8 -3
18 2 17 9 18 94 16 1953 -2 2185 -6 2501 -40 3313 -6 151 -9 208 -15 333 -3
68 6 76 17 15 4 -26 8 -50 9 -53 1 -3 5 -23 10 -45 4 -22 10 -49 12 -60 2 -11
6 -31 9 -45 3 -14 9 -40 14 -59 5 -19 7 -38 4 -43 -3 -4 0 -8 6 -8 6 0 9 -3 7
-7 -3 -5 2 -37 10 -73 8 -36 16 -74 18 -85 6 -37 21 -104 25 -115 1 -3 2 -8 1
-12 0 -4 6 -36 14 -70 8 -35 16 -76 19 -93 3 -16 8 -39 10 -50 20 -92 39 -184
42 -205 3 -14 7 -33 10 -42 3 -10 7 -29 10 -43 6 -36 12 -66 19 -95 3 -14 8
-36 11 -50 2 -14 9 -45 14 -70 6 -25 12 -54 14 -65 3 -11 19 -85 36 -165 17
-80 33 -154 35 -165 3 -11 14 -60 25 -110 11 -49 23 -101 26 -115 3 -14 10
-43 15 -65 5 -22 11 -49 13 -60 3 -17 16 -84 22 -107 1 -5 2 -9 4 -10 2 -4 9
-34 15 -68 2 -14 33 -151 70 -305 69 -297 99 -426 120 -515 7 -30 25 -107 40
-170 25 -104 33 -139 51 -220 3 -14 18 -79 34 -145 26 -109 54 -231 111 -475
10 -47 22 -96 26 -110 3 -14 8 -33 10 -44 2 -10 12 -55 23 -100 27 -114 51
-217 56 -246 3 -14 8 -34 11 -45 8 -23 9 -28 18 -74 3 -19 8 -37 10 -41 2 -3
6 -17 9 -31 2 -13 14 -67 26 -119 20 -93 33 -145 84 -360 14 -58 27 -116 30
-130 3 -14 12 -52 20 -86 8 -34 17 -72 20 -85 11 -59 8 -58 144 -57 70 0 132
-1 137 -2 6 -1 15 -1 20 0 30 6 265 4 265 -3 0 -5 5 -5 12 -1 7 4 81 7 165 7
102 0 155 3 161 11 5 6 17 47 26 91 23 104 20 93 51 220 15 61 29 121 31 135
3 14 10 43 16 65 6 22 13 49 15 60 2 11 10 49 19 85 9 36 19 79 21 95 3 17 9
38 14 48 5 9 8 17 5 17 -3 0 4 30 14 68 10 37 21 81 24 97 3 17 19 91 37 165
17 74 32 142 34 150 2 8 4 16 5 18 3 2 3 2 15 57 11 53 10 47 35 150 12 50 23
97 25 105 3 14 21 90 31 135 3 11 7 29 9 40 8 34 14 58 31 125 9 36 17 75 19
87 2 11 6 30 9 41 7 20 11 38 21 85 5 24 21 93 35 147 13 48 41 171 46 195 4
23 9 43 25 105 6 25 13 54 15 65 2 11 10 49 19 85 9 36 18 73 20 83 2 10 6 26
9 35 3 9 7 28 10 42 2 14 14 66 26 115 28 115 30 124 37 160 3 17 9 38 14 48
5 9 8 17 5 17 -3 0 0 15 5 33 5 17 12 46 15 62 3 17 14 68 25 115 36 153 41
175 44 190 2 8 13 58 25 110 12 52 24 104 26 115 2 11 6 29 9 40 19 81 65 286
70 310 3 17 8 41 11 55 3 14 9 41 14 60 5 19 12 49 15 65 12 67 16 89 30 143
8 31 15 66 15 77 0 12 3 25 7 29 4 3 8 14 9 24 4 32 16 97 20 103 2 3 6 21 9
40 5 30 17 84 31 142 6 27 23 104 28 132 2 11 18 83 34 160 17 77 33 151 36
165 17 79 37 167 40 180 3 8 5 21 5 29 1 8 4 11 7 8 8 -8 11 -77 4 -77 -3 0
-6 -37 -6 -83 -1 -45 -4 -145 -8 -222 -10 -235 -24 -697 -32 -1065 -6 -302
-12 -4147 -6 -4172 2 -10 14 -18 26 -17 11 0 46 0 76 0 393 4 550 3 550 -4 0
-5 5 -5 12 -1 14 9 461 9 475 1 6 -4 13 -4 17 0 3 4 159 6 346 6 l340 -1 0
4079 0 4079 -1289 0 -1289 0 -6 -27 c-3 -16 -10 -48 -16 -73 -5 -25 -12 -56
-15 -70 -3 -14 -8 -34 -10 -45 -2 -11 -6 -31 -9 -45 -8 -34 -16 -71 -20 -95
-2 -11 -12 -51 -21 -90 -9 -38 -18 -86 -21 -105 -3 -19 -8 -38 -10 -41 -2 -4
-6 -24 -9 -45 -4 -22 -9 -48 -12 -59 -8 -24 -9 -29 -18 -75 -3 -19 -13 -64
-21 -100 -8 -36 -26 -117 -39 -180 -14 -63 -34 -155 -45 -205 -11 -49 -23
-106 -26 -125 -3 -19 -8 -38 -10 -41 -2 -3 -6 -21 -9 -40 -3 -19 -15 -74 -26
-124 -20 -88 -25 -111 -33 -157 -2 -13 -9 -43 -15 -68 -7 -25 -14 -58 -16 -74
-2 -15 -7 -36 -10 -46 -3 -10 -8 -29 -10 -42 -4 -21 -8 -37 -20 -95 -3 -13 -7
-32 -10 -43 -9 -35 -33 -147 -51 -235 -5 -24 -4 -19 -44 -205 -17 -80 -34
-154 -36 -165 -3 -11 -7 -31 -10 -45 -3 -14 -12 -59 -20 -100 -9 -41 -17 -87
-19 -102 -2 -15 -6 -35 -9 -45 -3 -10 -8 -34 -11 -53 -3 -19 -8 -42 -10 -50
-2 -8 -7 -28 -9 -45 -3 -16 -8 -43 -12 -58 -3 -16 -7 -38 -9 -50 -3 -21 -41
-226 -51 -277 -15 -78 -25 -129 -30 -160 -3 -19 -12 -66 -19 -105 -7 -38 -11
-73 -8 -77 2 -5 1 -8 -4 -8 -4 0 -9 -12 -10 -27 0 -16 -4 -44 -7 -63 -3 -19
-8 -55 -12 -79 -3 -25 -7 -48 -9 -51 -3 -4 -7 -26 -10 -50 -6 -47 -8 -63 -26
-170 -6 -41 -12 -81 -12 -87 0 -7 -4 -13 -9 -13 -9 0 -9 1 -13 45 -1 17 -5 47
-9 68 -3 20 -8 54 -11 75 -3 20 -8 48 -10 62 -3 14 -7 43 -11 65 -3 22 -8 54
-11 70 -3 17 -7 39 -8 50 -7 46 -26 162 -32 190 -3 17 -7 39 -8 51 -2 11 -8
45 -14 75 -11 55 -17 87 -26 137 -3 15 -8 38 -11 52 -3 14 -8 43 -11 65 -2 21
-6 42 -9 46 -2 4 -6 24 -10 45 -3 22 -9 55 -14 74 -5 19 -11 46 -14 60 -2 14
-12 59 -21 100 -9 41 -18 84 -20 95 -2 11 -9 40 -15 65 -6 25 -13 59 -16 75
-3 17 -7 36 -10 44 -2 7 -11 48 -20 90 -9 42 -17 83 -19 91 -2 8 -18 85 -35
170 -18 85 -34 162 -35 170 -2 8 -4 15 -5 15 -2 0 -7 29 -14 70 -2 17 -9 53
-16 80 -6 28 -14 61 -16 75 -7 35 -10 51 -17 85 -4 17 -9 45 -12 64 -3 19 -7
37 -9 40 -2 3 -7 22 -10 41 -3 19 -8 46 -11 60 -16 73 -27 127 -30 145 -2 11
-4 20 -5 20 -1 0 -3 9 -5 20 -2 11 -8 43 -14 70 -6 28 -13 61 -15 75 -3 14
-10 45 -16 70 -5 25 -12 56 -14 70 -2 14 -7 36 -10 50 -3 14 -8 36 -10 50 -2
14 -9 45 -15 70 -5 25 -12 59 -15 75 -3 17 -8 41 -11 55 -3 14 -8 36 -11 50
-3 14 -14 66 -24 115 -11 50 -21 101 -24 115 -3 14 -21 102 -40 195 -20 94
-38 179 -40 190 -2 11 -7 31 -10 45 -3 14 -8 36 -10 50 -5 24 -19 93 -29 135
-3 11 -8 39 -12 63 l-7 42 -1319 0 c-725 0 -1319 -3 -1320 -7z"/>
<path d="M2158 1603 c-17 -4 -18 -51 -18 -804 l0 -799 3545 0 3545 0 0 799 0
799 -34 4 c-18 2 -45 1 -60 -3 -14 -4 -26 -4 -26 -1 0 8 -592 7 -606 0 -5 -2
-20 -3 -34 -1 -30 4 -131 6 -145 3 -5 -1 -14 -2 -20 0 -8 1 -190 1 -290 -1
-34 0 -337 0 -550 1 -99 1 -182 0 -185 -1 -3 -1 -9 0 -15 1 -20 4 -673 3 -681
-2 -5 -2 -20 -3 -34 -1 -30 4 -131 6 -145 3 -5 -1 -14 -2 -20 0 -8 1 -190 1
-290 -1 -34 0 -337 0 -550 1 -99 1 -182 0 -185 -1 -3 -1 -9 0 -15 1 -20 4
-673 3 -681 -2 -5 -2 -20 -3 -34 -1 -30 4 -131 6 -145 3 -5 -1 -14 -2 -20 0
-8 1 -190 1 -290 -1 -34 0 -337 0 -550 1 -99 1 -182 0 -185 -1 -3 -1 -9 0 -15
1 -20 4 -673 3 -681 -2 -5 -2 -20 -3 -34 -1 -14 1 -119 3 -235 3 -246 0 -287
0 -294 4 -3 1 -14 1 -23 -1z"/>
</g>
</svg>
